<?xml version="1.0" encoding="UTF-8"?>
<svg version="1.1" viewBox="0 0 1024 1024" width="1024" height="1024" xmlns="http://www.w3.org/2000/svg">
<path transform="translate(0)" d="m0 0h1024v1024h-1024z" fill="#F7F7F5"/>
<path transform="translate(929,354)" d="m0 0 9 1 6 5 4 10 9 57-1 6-2 2-1 20-1 3h-2l2 6 5-2 2-1 6 36 3 21 2 19h-4l4 8 2 7v22l-3 9-9 10-10 6-18 5-18 1-35 8-27 4-8 2-27 4-80 14-62 12-38 6-25 5-180 33-50 9-13 2-6 1-5 2-34 6-16 3-6 2h-7l-24 6-42 8-23 3-12 2-4 2-35 6-9-1-5-1-1 4-24 3-4 1h-11l-9-4-12-9-6-39v-19l-4-4-2-18v-18l-7-30-6-33-2-14v-13l1-4-2-6 10-10-2-6 1-6 8-5 17-5 67-14 10-1 16-4 24-4 12-3 22-3 10-3 12-3 62-11 15-1 2-1 15-2 22-5 9-1 9-3 16-3h6l10-3 35-6 15-2 11-3 24-5 8-1 3 1 3-2 33-5h6l2 1 3 15 6 4 13 4 15 4 5 2h11l4-4 4-13 4-4 4-9 5-5 3-6 5-2 16-3 8-3 1-3 32-4 10-1 7 5h8l6-4 4-6 15-2 7-3 2-3 21-4h12l3-3 50-9 26-6 21-3z"/>
<path transform="translate(446,149)" d="m0 0h5v24h8v16h6l1 1 1 7 14 1v94h43v10h15v99l-13 3-88 17-56 10-31 6-13 4-13 1h-5l-6 2-79 15h-4v-117l1-1 11-1v-10l1-6 55-1v20h7v19h10v-93l9-11 10-14 6-7 43 1v95h27v-124l1-1 10-1v-11l1-1 8-1 1-6 8-1 1-14h5z"/>
<path transform="translate(478,81)" d="m0 0h57l36 4 37 7 17 5 1 2 1 127 7 10 3 13 7 8 11 8 5 1 14-3 6-3v-2l-10-1-1-9-2-1 1-2-2-1 1-4 1-3-2-5-8-2 3-5 7-9 5-7 7-4 4-1h8l8 3 4 5 3 6 1 7v10l-4 5-3 9v2l11 6 9 9 8 15 9 35 1 11-3 15h2l3-9 1-7 4-1 1 4-2 12 2 4-6 26-4 4-3 11-4 6-2 1h-7l-6-5-1-6-2 1-37 1-23 2h-9l-13 26-6 9-3 5-2 15-2 4-6 1-13-5-17-4-10-5 2-9 3-2 16 1 5-5 1-6 1-4 6-10 14-29 6-9v-31l-1-7-13-8-10-3-6-4 2 8v5l-8 1-2-6-1-8-5-3-2-10 1-5 1-1v-7l-1-3-20-2-5-2-2-4-1-10 3-9 5-3 25-6 11-1 2 1 2 8v7l-7 2-23 5-11 3-3-8 3 12 22 2 4 2 2 10 7 3 8 8 4 2 18 2-4-49-4-4v-8l4-7v-98l-21-6-29-6-13-2-3-1-24-1h-40l-12 1h-11l-45 8-22 6-7 3-15 4-26 11-24 13-16 8-14 9-18 13-11 9-9 4-3 7-7 7-7 8-14 15-13 15-9 12-12 18-6 11-8 16-7 12-3 10-2 2-6 1 2 5-1 8-7 21-8 31-2 9-2 2v9l-2 13-2 22v11l-2 9-16 4-10 2h-6l-1-1v-23l4-38 6-36 6-24 8-21 9-19 3-12 16-32 10-17 8-11 6-10 11-14 24-28 15-15 11-9 13-11 23-16 17-11 21-12 15-8h9l6-4 3-4 21-7h9l9-6 24-6 24-5 31-4z"/>
<path transform="translate(877,628)" d="m0 0 4 2-7 19-11 22-13 23-12 17h-2l-1 7-9 10-9 11-8 8-7 8-9 10-14 14-8 7-10 9-17 13-20 14-11 7-6 2-4 4-21 11-25 11-10 4-12 4-26 8-12 2-15 4-24 4-31 3h-45l-31-3-23-4-15-4-14-4-13-3-28-10-24-10-24-12-15-9-16-10-11-8-10-7-7-6-2-7-10-4-9-8-2-3-4-2-4-5-8-7-4-4 1-3 15-4 17-4 4 2 9 3v2l4 2 7 7 8 7 13 10 15 11 19 11 14 8 12 6 13 6 23 9 27 9 32 7 24 4 19 2 7 2 2 1h9l2 2 2-4 2-1 36-3 38-6 17-4 15-4 13-4 7-4 8-2 26-12 23-12 19-12 14-10 18-14 12-10 5-1 4-8 10-10 3-2h5v-6l9-11 9-10 11-15 4-8 6-2 3-10 1-5h2l2-5 8-14 3-4 2-7 6-3 11-1 5-2z"/>
<path transform="translate(630,99)" d="m0 0 12 3 25 9 6 4 3 6h8l2-1 9 6 9 3 22 12 24 16 14 11 16 13 13 12 13 14 7 8 11 14 10 12 8 13v4l4 2 11 19 10 19 5 10 8 21 1 4v12l-3-3-11 1-5 1h-10l-2-8-5-2-4-8 1-6-4-2-5-8-8-14-6-11-14-21-13-16-4-6-3-7-3-2-5-2-24-24-11-9-12-9-13-10-18-11-18-10-23-11-12-5-15-6-1-17z"/>
<path transform="translate(173,552)" d="m0 0h7l3 8 4 28 11 67 3 19v5l-5 3-10 2-5-1-2-2-6-43-4-25v-9h-2l1 4-1 28-1 46-1 4-7 2h-5l-3-4-8-21-8-23-5-13-4-10 8 49 3 20v5l-6 3-5 1h-8l-3-9-9-55-6-36-2-14-1-4v-9l2-2 19-3h8l4 8 15 43 5 15v2h2v-40l1-33 4-3z" fill="#F6F6F4"/>
<path transform="translate(527,484)" d="m0 0h14l10 4 7 6 5 8 5 25 5 29 4 24v12l-4 12-7 8-12 6-10 2h-9l-9-3-8-6-6-8-2-5-10-61-2-11v-19l5-10 8-7 8-4z" fill="#F4F4F3"/>
<path transform="translate(458,500)" d="m0 0 10 2 8 5 6 7 4 10 3 19-1 14-4 9-2 3h-2l1 6 5 12 11 24 4 10-1 5-13 3h-7l-3-4-10-23-5-13-4-8-4-1v8l6 39v5l-3 2-10 2h-10l-2-3-9-58-8-47-3-18 4-3 17-4z" fill="#F6F6F4"/>
<path transform="translate(291,528)" d="m0 0h18l8 3 7 6 5 10 4 15v8l-2 2-12 2h-7l-4-16-2-7h-9l-4 4v13l10 60 3 9 3 2 9-1 3-5v-14l-2-8h-11l-2-3-1-6v-9l9-3 22-3 3 4 6 35v6l2 7 1 5v9l-9 3-5-1-2-3h-2l-6 7-8 4h-17l-7-3-5-4-4-8-4-9-4-23-8-50v-12l4-13 6-7 10-5z" fill="#F6F6F4"/>
<path transform="translate(607,470)" d="m0 0h16l10 5 7 8 4 12 1 14-2 2-11 2h-7l-3-5-4-10-3-5-7-1h-3l-2 6 1 9 7 8 7 6 11 7 13 10 8 10 5 11 2 7v13l-3 9-9 10-10 5-10 2h-8l-10-3-6-4-6-7-5-16-1-11 2-2 14-3 5 1 2 5 4 13 4 5 7 1 5-3 1-7-4-13-5-5-7-6-10-6-11-8-10-10-5-12-2-13 1-11 4-8 8-7 10-4z" fill="#F5F5F3"/>
<path transform="translate(833,430)" d="m0 0h5l1 1v34l-4 98-3 3-16 3-5-1-3-5-5-15-4-10-6-16-8-23-7-17-8-22-5-14 4-4 11-2h8l3 3 11 33 3 11 4 11 6 20 1-81 1-3 6-2z" fill="#F5F5F3"/>
<path transform="translate(395,511)" d="m0 0h6l3 9 1 11-7 3-26 4 4 24v7l21-4 4 1 2 5 2 8v5l-2 2-22 4 3 22 2 11h7l22-4h5l2 5 2 9v6l-9 3-43 8h-6l-2-5-9-58-8-47-2-11v-7l2-2z" fill="#F6F6F4"/>
<path transform="translate(899,418)" d="m0 0h7l2 6 2 14-3 2-25 4-3 1v8l4 22 11-1 11-2 2 1 3 13v6l-11 3-13 2 2 7 4 28 11-1 18-3h6l3 9 1 10-3 2-48 9h-7l-2-2-7-43-5-31-4-26-4-22 1-6 5-2 30-6z" fill="#F6F6F4"/>
<path transform="translate(244,539)" d="m0 0h9l2 5 1 6v9l-4 2-24 4-3 2 3 23 1 6 15-2 9-1 3 9 1 10-2 2-20 3-2 1 4 32 12-1 21-3 2 1 3 12v7l-3 2-47 9h-6l-2-2-7-44-5-30-3-19-3-17-2-15 5-3z" fill="#F6F6F4"/>
<path transform="translate(750,446)" d="m0 0h5l2 3 2 11v7l-6 3-14 3 1 13 5 29 2 15 4 20 3 20v8l-5 3-14 2-4-3-5-30-7-40-1-8-4-25-21 3-2-2-3-14v-5l2-2 38-7 9-2h7z" fill="#F4F4F2"/>
<path transform="translate(670,461)" d="m0 0h6l2 3 4 22 8 51 7 43 1 6-2 4-15 3h-5l-3-5-5-28-5-34-5-28-4-24v-9l9-3z" fill="#F4F4F2"/>
<path transform="translate(529,507)" d="m0 0h6l5 5 3 12 6 34 3 21v13l-4 5-8 1-5-5-6-28-6-43v-9l2-4z"/>
<path transform="translate(656,320)" d="m0 0h6l11 14-2 2-8 2 2 3v3l-17 4-14 3v2h-2l-1-11v-19l11 1 3-2z" fill="#F8F8F6"/>
<path transform="translate(448,521)" d="m0 0h7l5 4 3 8 2 12-1 9-4 5-3 1h-8l-2-8-4-23v-5z"/>
<path transform="translate(627,262)" d="m0 0h2l10 17 6 9 2 4 3 1-2 5-1 2-3 1h-10l-4-2z" fill="#F8F8F6"/>
<path transform="translate(509,463)" d="m0 0h8l2 6 1 8-3 4-9 2h-8l-2-2-1-5v-9l2-2z" fill="#F8F8F6"/>
<path transform="translate(534,459)" d="m0 0h9l2 2 1 5v8l-5 3-13 2-2-2-2-11 1-5z" fill="#F8F8F6"/>
<path transform="translate(674,433)" d="m0 0h6l-2 10-4 10-7 3-9 1-1-4 6-16 4-3z" fill="#F8F8F6"/>
<path transform="translate(680,308)" d="m0 0 3 4 6 11v2l-4 2-2 3-7 1-7-9-2-3 1-4 6-4z" fill="#F8F8F6"/>
<path transform="translate(727,370)" d="m0 0 5 2-1 11-4 5h-5l-5-7v-2l6-3z" fill="#F8F8F6"/>
<path transform="translate(427,228)" d="m0 0h8v15h-8z" fill="#F8F8F6"/>
<path transform="translate(428,290)" d="m0 0h6l1 2v13l-1 1h-7v-15z" fill="#F8F8F6"/>
<path transform="translate(427,259)" d="m0 0h7l1 15-1 1h-7z" fill="#F8F8F6"/>
<path transform="translate(444,290)" d="m0 0h7v16h-7z" fill="#F8F8F6"/>
<path transform="translate(461,259)" d="m0 0h7v16h-7z" fill="#F8F8F6"/>
<path transform="translate(444,258)" d="m0 0h7v16h-7z" fill="#F8F8F6"/>
<path transform="translate(461,290)" d="m0 0h7v15l-1 1h-6z" fill="#F8F8F6"/>
<path transform="translate(428,321)" d="m0 0h6l1 2-1 14h-7v-15z" fill="#F8F8F6"/>
<path transform="translate(273,388)" d="m0 0h6l1 2-1 14h-7v-15z" fill="#F8F8F6"/>
<path transform="translate(272,357)" d="m0 0h7l1 15h-8z" fill="#F8F8F6"/>
<path transform="translate(329,307)" d="m0 0h8v15h-8z" fill="#F8F8F6"/>
<path transform="translate(444,227)" d="m0 0h7v15l-5 1-2-1z" fill="#F8F8F6"/>
<path transform="translate(363,306)" d="m0 0h7v16l-7-1z" fill="#F8F8F6"/>
<path transform="translate(347,306)" d="m0 0h7v15h-7l-1-14z" fill="#F8F8F6"/>
<path transform="translate(346,278)" d="m0 0h8v14l-1 1h-6l-1-2z" fill="#F8F8F6"/>
<path transform="translate(250,389)" d="m0 0h7v15h-7z" fill="#F8F8F6"/>
<path transform="translate(250,357)" d="m0 0h7v15h-7z" fill="#F8F8F6"/>
<path transform="translate(363,338)" d="m0 0h7v15h-7z" fill="#F8F8F6"/>
<path transform="translate(346,338)" d="m0 0h8v14l-1 1h-6z" fill="#F8F8F6"/>
<path transform="translate(515,329)" d="m0 0h7v15h-7z" fill="#F8F8F6"/>
<path transform="translate(493,329)" d="m0 0h7v15h-7z" fill="#F8F8F6"/>
<path transform="translate(444,321)" d="m0 0h7v15h-7z" fill="#F8F8F6"/>
<path transform="translate(363,278)" d="m0 0h7v15h-7z" fill="#F8F8F6"/>
<path transform="translate(329,278)" d="m0 0h7v15h-7z" fill="#F8F8F6"/>
<path transform="translate(461,228)" d="m0 0h7v15h-7z" fill="#F8F8F6"/>
</svg>
